<svg id="Layer_1" enable-background="new 0 0 496 496" height="512" viewBox="0 0 496 496" width="512" xmlns="http://www.w3.org/2000/svg"><path d="m479.963 266.318c-1.615 60.16-50.891 108.429-111.448 108.429h-266.955c-48.033 0-86.81-39.609-85.444-87.953 1.33-47.216 41.252-82.984 83.63-82.984 9.033-.199 16.015-8.014 14.996-16.997-6.904-61.289 43.06-121.003 110.803-121.003 48.518 0 89.792 30.987 105.112 74.249 3.131 8.871 12.151 14.301 21.457 12.922 68.37-9.994 129.554 43.503 127.849 113.337z" fill="#b9dcff"/><path d="m368.51 374.744c-285.55 0-268.155.061-271.614-.125-19.106-1.027-17.97-29.703 1.163-29.463 40.606.509 110.839-.412 240.452-.412 55.078 0 95.96-37.822 107.961-83.949 5.089-19.562 33.797-15.897 33.513 4.314-.847 60.136-50.067 109.635-111.475 109.635z" fill="#a2d0ff"/><path d="m231.954 100.939c-47.768 15.472-83.208 62.635-77.214 115.875 1.02 8.98-5.96 16.8-14.99 17-46.128 0-80.627 38.122-83.51 80.433-1.311 19.239-27.932 23.146-34.717 5.095-21.43-57.013 22.702-115.528 78.227-115.528 9.03-.2 16.01-8.02 14.99-17-6.9-61.29 43.06-121 110.8-121 22.663 0 25.519 28.937 6.414 35.125z" fill="#d1e7ff"/><path d="m496 263.243c0 70.304-57.196 127.5-127.5 127.5-8.837 0-16-7.163-16-16s7.163-16 16-16c52.659 0 95.5-42.841 95.5-95.5 0-64.368-62.68-110.382-124.09-91.15-9.154 2.864-18.768-2.922-20.514-12.358-8.361-45.191-47.851-77.991-93.896-77.991-52.659 0-95.5 42.841-95.5 95.5 0 5.576 1.957 18.358 3.19 25.106 2.02 11.06-7.71 20.679-18.707 18.602-43.062-8.133-82.483 25.046-82.483 68.291 0 38.322 31.178 69.5 69.5 69.5 8.837 0 16 7.163 16 16s-7.163 16-16 16c-55.968 0-101.5-45.532-101.5-101.5 0-55.031 44.021-99.974 98.7-101.462-7.616-69.982 49.688-138.038 126.8-138.038 55.784 0 104.362 36.073 121.22 87.856 78.409-13.505 149.28 47.151 149.28 125.644zm-290 11c-8.837 0-16 7.163-16 16v101.372l-22.187-22.186c-6.248-6.248-16.379-6.248-22.627 0-6.249 6.248-6.249 16.379 0 22.627l49.5 49.5c10.039 10.042 27.314 2.933 27.314-11.313v-140c0-8.836-7.163-16-16-16zm81.313 4.687c-10.039-10.041-27.313-2.931-27.313 11.313v140c0 8.837 7.163 16 16 16s16-7.163 16-16v-101.372l22.187 22.186c6.248 6.248 16.379 6.248 22.627 0 6.249-6.248 6.249-16.379 0-22.627z" fill="#2e58ff"/></svg>